<?xml version="1.0" encoding="UTF-8" standalone="no"?>
<!-- Created with Inkscape (http://www.inkscape.org/) -->

<svg
   width="505.3519mm"
   height="100.063mm"
   viewBox="46 54 505.3519 100.063"
   version="1.1"
   id="svg2158"
   xmlns="http://www.w3.org/2000/svg"
   xmlns:svg="http://www.w3.org/2000/svg">
  <defs
     id="defs2155" />
  <g
     id="layer1"
     transform="translate(-1.2919,-0.417)">
    <path
       id="path10407"
       style="fill:#0066ff;fill-opacity:0.541176;stroke-width:0.308634"
       d="M 81.8419,154.48 47.2919,54.9285 H 116.392 Z" />
    <path
       id="path10407-4"
       style="fill:#0066ff;fill-opacity:0.541176;stroke-width:0.308634"
       d="M 112.111,154.48 77.5609,54.9285 h 69.1001 z" />
    <path
       id="path10407-44-8-0"
       style="fill:#0066ff;fill-opacity:0.541176;stroke-width:0.333191"
       d="m 269.588,54.8844 80.244,99.5516 h -80.533 z" />
    <path
       id="rect18308-71-9-9-0-3"
       style="fill:#0066ff;fill-opacity:0.541176;stroke-width:0.184698;stroke-dasharray:0.184899, 2.21878"
       d="M 349.845,54.6421 V 154.185 H 324.902 V 54.6421 Z" />
    <path
       id="rect18308-71-9-9-6"
       style="fill:#0066ff;fill-opacity:0.541176;stroke-width:0.184698;stroke-dasharray:0.184899, 2.21878"
       d="M 395.988,54.7004 V 154.244 H 371.045 V 54.7004 Z" />
    <path
       id="path22991"
       style="fill:#0066ff;fill-opacity:0.541176;stroke-width:0.235004;stroke-dasharray:0.235261, 2.82311"
       d="M 451.20486,94.608757 A 39.712669,39.712669 0 0 1 411.49219,134.32143 39.712669,39.712669 0 0 1 371.77952,94.608757 39.712669,39.712669 0 0 1 411.49219,54.896088 39.712669,39.712669 0 0 1 451.20486,94.608757 Z" />
    <path
       id="rect18308-71-8"
       style="fill:#0066ff;fill-opacity:0.541176;stroke-width:0.165614"
       d="m 168.12572,55.01825 h 79.97365 v 24.962377 h -79.97365 z" />
    <path
       id="rect18308-71-9-2"
       style="fill:#0066ff;fill-opacity:0.541176;stroke-width:0.184698"
       d="M 192.803,54.6513 V 154.195 H 167.86 V 54.6513 Z" />
    <path
       id="rect18308-71-7-3-9"
       style="fill:#0066ff;fill-opacity:0.541176;stroke-width:0.165614"
       d="m 168.12572,129.51257 h 79.97365 v 24.96238 h -79.97365 z" />
    <path
       id="rect26209"
       style="fill:#ffd529;fill-opacity:0.541176;stroke-width:0.140827"
       d="m 207.86348,92.206268 h 24.77767 v 24.777662 h -24.77767 z" />
    <path
       id="rect18308-71-8-1"
       style="fill:#0066ff;fill-opacity:0.541176;stroke-width:0.165614"
       d="m 472.67014,54.783989 h 79.97365 v 24.962378 h -79.97365 z" />
    <path
       id="rect18308-71-9-2-2"
       style="fill:#0066ff;fill-opacity:0.541176;stroke-width:0.184698"
       d="M 497.348,54.417 V 153.96 H 472.405 V 54.417 Z" />
    <path
       id="rect18308-71-7-3-9-3"
       style="fill:#0066ff;fill-opacity:0.541176;stroke-width:0.165614"
       d="m 472.67014,129.27831 h 79.97365 v 24.96237 h -79.97365 z" />
    <path
       id="rect26209-7"
       style="fill:#ffd529;fill-opacity:0.541176;stroke-width:0.140827"
       d="m 512.4079,91.972008 h 24.77766 V 116.74967 H 512.4079 Z" />
  </g>
</svg>
